<svg xmlns="http://www.w3.org/2000/svg" viewBox="0 0 1672.22 670.54"><defs><style>.a,.c{fill:#223c55;}.b{fill:none;stroke:#707d82;stroke-miterlimit:10;stroke-width:3px;}.c{font-size:250px;font-family:Lato-Regular, Lato;}</style></defs><rect class="a" y="74.88" width="6.9" height="27.73" rx="2"/><rect class="a" x="0.37" y="126.06" width="6.9" height="45.38" rx="2"/><rect class="a" x="322.86" y="126.06" width="6.9" height="45.38" rx="2"/><rect class="a" x="0.49" y="179.01" width="6.9" height="45.38" rx="2"/><path class="a" d="M311.52,48.73H77.6c-24.49,0-44.35,20.32-44.35,45.38V673.89c0,25.06,19.86,45.38,44.35,45.38H311.52c24.49,0,44.35-20.32,44.35-45.38V94.11C355.87,69.05,336,48.73,311.52,48.73Zm25.33,592.76H53V124.29H336.85Z" transform="translate(-29.56 -48.73)"/><ellipse class="b" cx="164.27" cy="631.74" rx="23.84" ry="24.39"/><text class="c" transform="translate(399.76 418.62) scale(0.98 1)">DHC.Phone</text><text x="-29.56" y="-48.73"/></svg>