<svg xmlns="http://www.w3.org/2000/svg" viewBox="0 0 2492.59 670.54"><defs><style>.a,.d{fill:#223c55;}.b{fill:none;stroke:#707d82;stroke-miterlimit:10;stroke-width:3px;}.c{fill:#fff;}.d{font-size:400px;font-family:Lato-Regular, Lato;}</style></defs><text x="-76.76" y="-48.73"/><rect class="a" x="979.85" y="74.88" width="6.9" height="27.73" rx="2"/><rect class="a" x="980.22" y="126.06" width="6.9" height="45.38" rx="2"/><rect class="a" x="1302.71" y="126.06" width="6.9" height="45.38" rx="2"/><rect class="a" x="980.34" y="179.01" width="6.9" height="45.38" rx="2"/><path class="a" d="M1338.57,48.73H1104.65c-24.49,0-44.35,20.32-44.35,45.38V673.89c0,25.06,19.86,45.38,44.35,45.38h233.92c24.49,0,44.35-20.32,44.35-45.38V94.11C1382.92,69.05,1363.06,48.73,1338.57,48.73Zm25.34,592.76H1080.09V124.29h283.82Z" transform="translate(-76.76 -48.73)"/><ellipse class="b" cx="1144.12" cy="631.74" rx="23.84" ry="24.39"/><polygon class="c" points="1014.08 230.19 972.01 272.27 974.56 550.98 1003.34 550.98 1023.75 534.08 1014.08 230.19"/><polygon class="c" points="1270.94 443.77 1313.02 401.7 1310.46 122.99 1281.69 122.99 1261.28 139.88 1270.94 443.77"/><text class="d" transform="translate(0 470.42) scale(0.98 1)">DHC</text><text class="d" transform="translate(1397.04 470.42) scale(0.98 1)">Phone</text></svg>