<svg xmlns="http://www.w3.org/2000/svg" viewBox="0 0 2492.59 670.54"><defs><style>.a,.c{fill:#223c55;}.b{fill:#707d82;}.c{font-size:400px;font-family:Lato-Regular, Lato;}</style></defs><path class="a" d="M1363.91,476.3V641.49H1080.09V599.71H1060.3v74.18c0,25.06,19.86,45.38,44.35,45.38h233.92c24.49,0,44.35-20.32,44.35-45.38V457.29Z" transform="translate(-76.76 -48.73)"/><path class="a" d="M1060.3,309.46l19.79-19.79V124.29h283.82v47.43h19V94.11c0-25.06-19.86-45.38-44.35-45.38H1104.65c-24.49,0-44.35,20.32-44.35,45.38v29.5h-1.69a2,2,0,0,0-2,2v23.74a2,2,0,0,0,2,2h1.69V174.8H1059a2,2,0,0,0-2,2v41.38a2,2,0,0,0,2,2h1.32v7.56h-1.2a2,2,0,0,0-2,2v41.39a2,2,0,0,0,2,2h1.2Z" transform="translate(-76.76 -48.73)"/><text x="-76.76" y="-48.73"/><path class="b" d="M1220.88,706.37c-14,0-25.33-11.62-25.33-25.9s11.36-25.89,25.33-25.89,25.34,11.62,25.34,25.89S1234.85,706.37,1220.88,706.37Zm0-48.79c-12.31,0-22.33,10.27-22.33,22.89s10,22.9,22.33,22.9,22.34-10.27,22.34-22.9S1233.2,657.58,1220.88,657.58Z" transform="translate(-76.76 -48.73)"/><text class="c" transform="translate(0 470.42) scale(0.98 1)">DHC</text><text class="c" transform="translate(1397.04 470.42) scale(0.98 1)">Phone</text></svg>